<svg width="88" height="99" viewBox="0 0 88 99" xmlns="http://www.w3.org/2000/svg">
<g id="Editions Bag Winter 25">
<path id="Vector" d="M58.2358 15.2545C58.2358 15.2545 57.2368 15.5399 55.5956 16.0394C55.3102 15.1117 54.882 14.0414 54.3112 12.8997C52.4559 9.33186 49.673 7.40523 46.3906 7.40523C46.1765 7.40523 45.9624 7.40523 45.677 7.47659C45.6056 7.33388 45.4629 7.26252 45.3916 7.11981C43.9645 5.54996 42.1092 4.83639 39.8971 4.90775C35.6157 5.05046 31.3343 8.1188 27.9092 13.6133C25.4831 17.4665 23.6278 22.3188 23.1283 26.1007C18.2047 27.5992 14.7796 28.6695 14.7082 28.7409C12.2107 29.5258 12.1394 29.5971 11.854 31.9519C11.4258 33.7358 4.93237 84.0423 4.93237 84.0423L58.878 93.39V15.1118C58.5926 15.1831 58.3785 15.1831 58.2358 15.2545ZM45.7484 19.1077C42.8941 19.964 39.7544 20.963 36.6861 21.8906C37.5424 18.5369 39.2549 15.1831 41.2529 12.9711C42.0378 12.1861 43.1082 11.2585 44.3212 10.6876C45.5343 13.2565 45.8197 16.753 45.7484 19.1077ZM39.9685 7.76202C40.9675 7.76202 41.8237 7.97609 42.5373 8.40423C41.3956 8.97508 40.2539 9.90272 39.1836 10.9731C36.472 13.8987 34.4027 18.4655 33.5464 22.8183C30.9775 23.6032 28.4087 24.3881 26.0539 25.1017C27.5524 18.3228 33.3323 7.97609 39.9685 7.76202ZM31.6198 47.0082C31.9052 51.575 43.9645 52.574 44.678 63.3488C45.1775 71.8403 40.1825 77.6202 32.9755 78.0483C24.27 78.6191 19.4891 73.4815 19.4891 73.4815L21.3444 65.6322C21.3444 65.6322 26.1253 69.2714 29.9785 68.986C32.476 68.8433 33.4037 66.7739 33.3323 65.3468C32.9755 59.3529 23.1283 59.7096 22.4861 49.8624C21.9153 41.6564 27.3384 33.3077 39.3263 32.5228C43.9645 32.2373 46.3192 33.379 46.3192 33.379L43.6077 43.6544C43.6077 43.6544 40.5393 42.2273 36.9001 42.5127C31.6198 42.8695 31.5484 46.2232 31.6198 47.0082ZM48.6026 18.2514C48.6026 16.1107 48.3172 13.0424 47.3182 10.4736C50.6006 11.1158 52.1705 14.755 52.884 16.967C51.5996 17.3238 50.1725 17.7519 48.6026 18.2514Z" fill="#FFFF00"/>
<path id="Vector_2" d="M60.6616 93.1045L83.0676 87.5387C83.0676 87.5387 73.4345 22.3901 73.3631 21.962C73.2917 21.5338 72.935 21.2484 72.5782 21.2484C72.2214 21.2484 65.942 21.1057 65.942 21.1057C65.942 21.1057 62.0888 17.3952 60.6616 15.968V93.1045Z" fill="#FFFF00"/>
</g>
</svg>